<svg height="480pt" viewBox="0 0 480 480" width="480pt" xmlns="http://www.w3.org/2000/svg"><path d="m472 136h-128v-16c0-17.679688 14.320312-32 32-32h64c17.679688 0 32 14.320312 32 32zm0 0" fill="#ffca55"/><path d="m472 304h-128v-16c0-17.679688 14.320312-32 32-32h64c17.679688 0 32 14.320312 32 32zm0 0" fill="#ffca55"/><path d="m472 472h-128v-16c0-17.679688 14.320312-32 32-32h64c17.679688 0 32 14.320312 32 32zm0 0" fill="#ffca55"/><path d="m448 48c0 22.089844-17.910156 40-40 40s-40-17.910156-40-40 17.910156-40 40-40 40 17.910156 40 40zm0 0" fill="#ffca55"/><path d="m448 216c0 22.089844-17.910156 40-40 40s-40-17.910156-40-40 17.910156-40 40-40 40 17.910156 40 40zm0 0" fill="#ffca55"/><path d="m448 384c0 22.089844-17.910156 40-40 40s-40-17.910156-40-40 17.910156-40 40-40 40 17.910156 40 40zm0 0" fill="#ffca55"/><path d="m296 184v128l-96-40v-48zm0 0" fill="#ed8c4a"/><path d="m80 88v-64c0-8.800781 7.199219-16 16-16h160c8.800781 0 16 7.199219 16 16v64c0 8.800781-7.199219 16-16 16h-88l-56 56v-56h-16c-8.800781 0-16-7.199219-16-16zm0 0" fill="#aad3e2"/><path d="m40 368h-32v-64c0-17.679688 14.320312-32 32-32h160v32h-80v168h-80zm0 0" fill="#64c1e2"/><path d="m168 224h32v48h-32zm0 0" fill="#ed8c4a"/><path d="m120 232c0 22.089844-17.910156 40-40 40s-40-17.910156-40-40 17.910156-40 40-40 40 17.910156 40 40zm0 0" fill="#64c1e2"/><g fill="#0d2c33"><path d="m8 376h24v96c0 4.414062 3.574219 8 8 8h80c4.425781 0 8-3.585938 8-8v-160h72c4.425781 0 8-3.585938 8-8v-20l84.921875 35.382812c.988281.417969 2.039063.617188 3.078125.617188 1.550781 0 3.105469-.457031 4.441406-1.34375 2.222656-1.488281 3.558594-3.984375 3.558594-6.65625v-128c0-2.671875-1.335938-5.167969-3.558594-6.65625-2.226562-1.488281-5.042968-1.757812-7.511718-.726562l-94.53125 39.382812h-30.398438c-4.425781 0-8 3.585938-8 8v40h-44.320312c7.632812-8.503906 12.320312-19.695312 12.320312-32 0-26.472656-21.527344-48-48-48s-48 21.527344-48 48c0 12.304688 4.6875 23.496094 12.320312 32h-4.320312c-22.054688 0-40 17.945312-40 40v64c0 4.414062 3.574219 8 8 8zm280-76-80-33.335938v-37.335937l80-33.328125zm-112-68h16v32h-16zm-128 0c0-17.648438 14.351562-32 32-32s32 14.351562 32 32-14.351562 32-32 32-32-14.351562-32-32zm-32 72c0-13.230469 10.769531-24 24-24h152v16h-72c-4.425781 0-8 3.585938-8 8v160h-24v-96h-16v96h-24v-160h-16v56h-16zm0 0"/><path d="m480 120.03125c0-20.910156-16.175781-37.933594-36.632812-39.6875 7.816406-8.542969 12.632812-19.878906 12.632812-32.34375 0-26.472656-21.527344-48-48-48s-48 21.527344-48 48c0 12.464844 4.816406 23.800781 12.632812 32.34375-20.457031 1.753906-36.632812 18.777344-36.632812 39.6875v15.96875c0 4.414062 3.574219 8 8 8h128c4.425781 0 8-3.585938 8-8zm-72-104.03125c17.648438 0 32 14.351562 32 32s-14.351562 32-32 32-32-14.351562-32-32 14.351562-32 32-32zm56 112h-112v-7.96875c0-13.246094 10.785156-24.03125 24.03125-24.03125h63.9375c13.246094 0 24.03125 10.785156 24.03125 24.03125zm0 0"/><path d="m480 288.03125c0-20.910156-16.175781-37.933594-36.632812-39.6875 7.816406-8.542969 12.632812-19.878906 12.632812-32.34375 0-26.472656-21.527344-48-48-48s-48 21.527344-48 48c0 12.464844 4.816406 23.800781 12.632812 32.34375-20.457031 1.753906-36.632812 18.777344-36.632812 39.6875v15.96875c0 4.414062 3.574219 8 8 8h128c4.425781 0 8-3.585938 8-8zm-72-104.03125c17.648438 0 32 14.351562 32 32s-14.351562 32-32 32-32-14.351562-32-32 14.351562-32 32-32zm56 112h-112v-7.96875c0-13.246094 10.785156-24.03125 24.03125-24.03125h63.9375c13.246094 0 24.03125 10.785156 24.03125 24.03125zm0 0"/><path d="m480 456.03125c0-20.910156-16.175781-37.933594-36.632812-39.6875 7.816406-8.542969 12.632812-19.878906 12.632812-32.34375 0-26.472656-21.527344-48-48-48s-48 21.527344-48 48c0 12.464844 4.816406 23.800781 12.632812 32.34375-20.457031 1.753906-36.632812 18.777344-36.632812 39.6875v15.96875c0 4.414062 3.574219 8 8 8h128c4.425781 0 8-3.585938 8-8zm-72-104.03125c17.648438 0 32 14.351562 32 32s-14.351562 32-32 32-32-14.351562-32-32 14.351562-32 32-32zm56 112h-112v-7.96875c0-13.246094 10.785156-24.03125 24.03125-24.03125h63.9375c13.246094 0 24.03125 10.785156 24.03125 24.03125zm0 0"/><path d="m108.9375 167.390625c.992188.410156 2.03125.609375 3.0625.609375 2.078125 0 4.128906-.816406 5.65625-2.34375l53.65625-53.65625h84.6875c13.230469 0 24-10.769531 24-24v-64c0-13.230469-10.769531-24-24-24h-160c-13.230469 0-24 10.769531-24 24v64c0 13.230469 10.769531 24 24 24h8v48c0 3.230469 1.945312 6.152344 4.9375 7.390625zm-12.9375-71.390625c-4.414062 0-8-3.59375-8-8v-64c0-4.40625 3.585938-8 8-8h160c4.414062 0 8 3.59375 8 8v64c0 4.40625-3.585938 8-8 8h-88c-2.128906 0-4.160156.839844-5.65625 2.34375l-42.34375 42.34375v-36.6875c0-4.414062-3.574219-8-8-8zm0 0"/><path d="m104 32h32v16h-32zm0 0"/><path d="m104 64h48v16h-48zm0 0"/><path d="m152 32h96v16h-96zm0 0"/><path d="m168 64h16v16h-16zm0 0"/><path d="m200 64h16v16h-16zm0 0"/><path d="m232 64h16v16h-16zm0 0"/></g></svg>