<?xml version="1.0" encoding="iso-8859-1"?>
<!-- Generator: Adobe Illustrator 18.0.0, SVG Export Plug-In . SVG Version: 6.00 Build 0)  -->
<!DOCTYPE svg PUBLIC "-//W3C//DTD SVG 1.1//EN" "http://www.w3.org/Graphics/SVG/1.1/DTD/svg11.dtd">
<svg version="1.1" id="Capa_1" xmlns="http://www.w3.org/2000/svg" xmlns:xlink="http://www.w3.org/1999/xlink" x="0px" y="0px"
	 viewBox="0 0 60.003 60.003" style="enable-background:new 0 0 60.003 60.003;" xml:space="preserve">
<g>
	<path d="M50.052,20.458V7.589c0-1.839-0.942-3.502-2.52-4.446c-0.8-0.479-1.685-0.726-2.575-0.741
		c-0.883-0.024-1.772,0.181-2.587,0.618L40,4.29v0.026l-17.213,9.222c-1.245,0.667-2.138,1.797-2.523,3.111L7.236,17.445
		c-1.646,0.117-2.948,1.406-3.145,3.008H3.211C1.44,20.452,0,21.893,0,23.663v5.578c0,1.771,1.44,3.211,3.211,3.211h0.885
		c0.217,1.775,1.66,3.203,3.492,3.334l0.464,0.028v17.288c0,2.481,2.019,4.5,4.5,4.5s4.5-2.019,4.5-4.5V36.362l3.238,0.197
		c0.41,1.327,1.337,2.451,2.628,3.095L40,48.195v0.026l2.499,1.25c0.737,0.369,1.53,0.552,2.321,0.552
		c0.008,0,0.016-0.002,0.024-0.002c0.009,0,0.019,0.002,0.028,0.002c0.943,0,1.884-0.261,2.722-0.778
		c1.539-0.951,2.458-2.6,2.458-4.409V32.447C52.784,32.419,55,30.192,55,27.452v-2C55,22.713,52.784,20.486,50.052,20.458z
		 M15.052,53.103c0,1.379-1.121,2.5-2.5,2.5s-2.5-1.121-2.5-2.5v-0.65h2c0.553,0,1-0.447,1-1s-0.447-1-1-1h-2v-2h2
		c0.553,0,1-0.447,1-1s-0.447-1-1-1h-2v-2h2c0.553,0,1-0.447,1-1s-0.447-1-1-1h-2v-2h2c0.553,0,1-0.447,1-1s-0.447-1-1-1h-2v-2.512
		l5,0.31V53.103z M43.446,47.682L42,46.959V5.515l1.365-0.731c0.422-0.226,0.876-0.335,1.333-0.36
		c0.064-0.002,0.126-0.021,0.19-0.02c0.006,0,0.011,0.001,0.017,0.001c0.535,0.015,1.067,0.166,1.547,0.454
		C47.422,5.439,48,6.459,48,7.589v12.863v12v12.383c0,1.111-0.564,2.123-1.51,2.707c-0.467,0.289-0.986,0.446-1.511,0.473
		C44.458,48.033,43.933,47.925,43.446,47.682z M4,30.452H3.211C2.543,30.452,2,29.909,2,29.242v-5.578
		c0-0.668,0.543-1.211,1.211-1.211H4V30.452z M6.052,31.999V20.865c0-0.746,0.583-1.372,1.316-1.425l12.684-0.774V34.54L7.72,33.791
		C6.784,33.724,6.052,32.937,6.052,31.999z M23.812,37.865c-1.086-0.542-1.76-1.633-1.76-2.847v-16.91
		c0-1.176,0.644-2.251,1.681-2.806L40,6.586v39.372L23.812,37.865z M53,27.452c0,1.637-1.318,2.966-2.948,2.995v-7.99
		C51.682,22.486,53,23.816,53,25.452V27.452z"/>
	<path d="M57.817,19.876c-0.317-0.451-0.942-0.559-1.394-0.241c-0.451,0.318-0.56,0.941-0.241,1.394
		c1.156,1.641,1.768,3.474,1.817,5.45c0.064,2.493-1.246,4.601-1.813,5.391c-0.322,0.449-0.219,1.074,0.229,1.396
		c0.177,0.127,0.381,0.188,0.582,0.188c0.312,0,0.618-0.145,0.813-0.417c0.685-0.955,2.268-3.51,2.188-6.608
		C59.939,24.05,59.205,21.846,57.817,19.876z"/>
	<path d="M31.896,15.009c-0.245-0.494-0.842-0.699-1.34-0.453l-4.451,2.201C24.807,17.452,24,18.799,24,20.273v2.18
		c0,0.553,0.447,1,1,1s1-0.447,1-1v-2.18c0-0.734,0.402-1.406,1.021-1.737l4.423-2.187C31.938,16.104,32.142,15.504,31.896,15.009z"
		/>
	<path d="M25,24.452c-0.553,0-1,0.447-1,1v2c0,0.553,0.447,1,1,1s1-0.447,1-1v-2C26,24.9,25.553,24.452,25,24.452z"/>
</g>
<g>
</g>
<g>
</g>
<g>
</g>
<g>
</g>
<g>
</g>
<g>
</g>
<g>
</g>
<g>
</g>
<g>
</g>
<g>
</g>
<g>
</g>
<g>
</g>
<g>
</g>
<g>
</g>
<g>
</g>
</svg>
