<svg xmlns="http://www.w3.org/2000/svg" xmlns:xlink="http://www.w3.org/1999/xlink" style="enable-background:new 0 0 48 48" version="1.1" viewBox="0 0 48 48" xml:space="preserve"><g id="Icons"><polyline points="10.215 21.801 21.165 29.341 24.755 26.871" style="fill:none;stroke:#303030;stroke-width:.7;stroke-linecap:round;stroke-linejoin:round;stroke-miterlimit:10"/><g><path d="M38.88,13.84871v7.85004c0,1.20001-0.98999,2.19-2.20001,2.19h-7.84997 c-0.91998,0-1.71002-0.57001-2.02997-1.37c-0.10004-0.25-0.16003-0.53003-0.16003-0.82001v-7.85004 c0-1.20996,0.97998-2.19995,2.19-2.19995h7.84997C37.89001,11.64875,38.88,12.63874,38.88,13.84871z" style="fill:#f43735"/><polygon points="25.435 16.347 25.435 21.926 21.815 24.462 10.639 16.605" style="fill:#4aa0ec"/><path d="M34.51523,25.08748v8.44H12.1052l-2.98999,2.82001V17.26747l12.70001,8.54999l4-2.57996 c0.57001,1.13,1.71997,1.84998,3.01001,1.84998H34.51523z" style="fill:#4aa0ec"/><polyline points="9.124 17.265 9.124 31.338 9.124 33.137" style="fill:none;stroke:#303030;stroke-width:.7;stroke-linecap:round;stroke-linejoin:round;stroke-miterlimit:10"/><path d="M34.52,25.29827v7.84047c0,0.23-0.14,0.39-0.26,0.39l-21.88-0.07" style="fill:none;stroke:#303030;stroke-width:.7;stroke-linecap:round;stroke-linejoin:round;stroke-miterlimit:10"/><line style="fill:none;stroke:#303030;stroke-width:.7;stroke-linecap:round;stroke-linejoin:round;stroke-miterlimit:10" x1="25.232" x2="10.87" y1="16.349" y2="16.349"/><path d="M9.12,17.26875l12.2,8.4c0.15,0.1,0.32,0.15,0.5,0.15c0.17,0,0.34-0.05,0.49-0.15l3.24835-2.25943" style="fill:none;stroke:#303030;stroke-width:.7;stroke-linecap:round;stroke-linejoin:round;stroke-miterlimit:10"/><path d="M9.1236,33.13679v3.21446l2.54136-2.5064c0,0,0.36364-0.38722,0.71505-0.3861" style="fill:none;stroke:#303030;stroke-width:.7;stroke-linecap:round;stroke-linejoin:round;stroke-miterlimit:10"/><line style="fill:none;stroke:#303030;stroke-width:.7;stroke-linecap:round;stroke-linejoin:round;stroke-miterlimit:10" x1="11.665" x2="11.665" y1="22.373" y2="27.208"/><line style="fill:none;stroke:#303030;stroke-width:.7;stroke-linecap:round;stroke-linejoin:round;stroke-miterlimit:10" x1="11.665" x2="11.665" y1="28.875" y2="29.946"/><path d="M38.88,13.84871v7.85004c0,1.20001-0.98999,2.19-2.20001,2.19h-7.84997c-0.91998,0-1.71002-0.57001-2.02997-1.37 c-0.10004-0.25-0.16003-0.53003-0.16003-0.82001v-7.85004c0-1.20996,0.97998-2.19995,2.19-2.19995h7.84997 C37.89001,11.64875,38.88,12.63874,38.88,13.84871z" style="fill:none;stroke:#303030;stroke-width:.7;stroke-linecap:round;stroke-linejoin:round;stroke-miterlimit:10"/><line style="fill:none;stroke:#303030;stroke-width:.7;stroke-linecap:round;stroke-linejoin:round;stroke-miterlimit:10" x1="26.64" x2="26.64" y1="20.569" y2="16.349"/><path d="M33.03002,15.16874l-1.14001,0.61005l0.14001,0.53998l0.89996-0.48999H32.95v4.53998H33.63 v-5.20001H33.03002z" style="fill:#fff"/></g></g></svg>