<?xml version="1.0" encoding="iso-8859-1"?>
<!-- Generator: Adobe Illustrator 19.0.0, SVG Export Plug-In . SVG Version: 6.00 Build 0)  -->
<svg version="1.1" id="Layer_1" xmlns="http://www.w3.org/2000/svg" xmlns:xlink="http://www.w3.org/1999/xlink" x="0px" y="0px"
	 viewBox="0 0 512 512" style="enable-background:new 0 0 512 512;" xml:space="preserve">
<g>
	<g>
		<path d="M481.75,194.919H235.754c-0.929-0.414-1.956-0.649-3.039-0.649c-4.134,0-7.486,3.351-7.486,7.485l-0.001,0.107
			c-0.003,0.042,0,0.083-0.002,0.125s-0.01,0.083-0.011,0.125c-0.175,4.479-3.833,7.987-8.33,7.987h-19.412
			c-4.496,0-8.154-3.508-8.329-7.987c0-0.001-0.014-0.249-0.014-0.249l-0.001-0.107c0-4.134-3.351-7.485-7.485-7.485
			c-1.083,0-2.11,0.235-3.039,0.649h-12.76c-24.179,0-47.42,7.267-67.211,21.014c-3.395,2.359-4.236,7.023-1.877,10.418
			c2.358,3.395,7.023,4.236,10.418,1.877c17.271-11.997,37.558-18.338,58.67-18.338h8.314v56.51c-9.198,0-23.09-0.616-41.447,4.752
			c-30.627,8.956-55.306,29.585-69.835,55.606c0-15.299-2.609-47.657,23.422-79.286c2.627-3.192,2.169-7.909-1.023-10.536
			c-3.192-2.627-7.909-2.169-10.536,1.023c-17.304,21.025-26.833,47.626-26.833,74.9v22.989c-0.831-0.046-1.662-0.083-2.495-0.083
			C20.371,335.763,0,356.135,0,381.175v51.23c0,41.407,51.087,61.022,78.918,30.619c22.536,24.73,54.358,39.245,86.917,39.245
			c0,0,0.024,0,0.033,0c42.158-0.01,81.379-22.757,102.35-59.356c11.304-19.664,25.261-36.833,42.532-51.87
			c3.118-2.714,3.444-7.443,0.73-10.56c-2.714-3.118-7.443-3.445-10.56-0.73c-19.585,17.051-36.605,39.03-43.967,52.757
			c-0.574,0.981-1.149,1.961-1.718,2.951c-18.317,31.966-52.562,51.829-89.37,51.838c-0.01,0-0.019,0-0.028,0
			c-32.118,0-63.669-16.304-83.543-43.816C33.3,375.656,82.57,281.37,165.846,281.37h10.672c2.329,4.779,6.342,8.683,11.148,10.908
			c2.996,1.386,6.46,2.157,9.808,2.157c16.258,0,32.472,3.135,40.368-13.064h259.187v17.098c0,7.257-5.166,13.558-12.282,14.981
			l-82.055,16.411c-28.498,5.7-55.158,16.705-79.237,32.71c-3.443,2.288-4.379,6.935-2.091,10.378
			c2.288,3.442,6.933,4.379,10.377,2.09c22.449-14.922,47.308-25.182,73.886-30.498l82.055-16.411
			C501.774,325.312,512,312.838,512,298.469v-24.584v-48.716C512,208.489,498.43,194.919,481.75,194.919z M53.895,432.404
			c0,4.678-3.806,8.483-8.483,8.483s-8.483-3.806-8.483-8.483c0-4.678,3.806-8.483,8.483-8.483S53.895,427.727,53.895,432.404z
			 M45.412,350.734c0.833,0,1.666,0.034,2.495,0.103c0,36.438-0.012,34.323,0.031,36.226c-11.666-0.642-23.753,3.276-32.966,11.64
			v-17.528h-0.001C14.971,364.391,28.626,350.734,45.412,350.734z M65.248,444.904c0.607,0.985,2.704,4.235,4.137,6.266
			c-5.718,7.295-14.543,11.675-23.974,11.675c-19.728,0-34.353-18.614-29.527-37.84c3.646-14.665,17.822-24.776,33.433-22.782
			c0.394,2.475,1.192,6.349,1.417,7.336c-14.62-3.409-28.778,7.711-28.778,22.845C21.956,455.566,52.599,464.933,65.248,444.904z
			 M225.103,272.586c-0.702,3.985-4.158,6.877-8.218,6.877c-0.592,0-19.579,0.019-20.165-0.033c-4.27-0.381-7.59-3.939-7.59-8.31
			v-47.573c2.59,0.985,5.403,1.523,8.344,1.523h19.412c2.941,0,5.754-0.538,8.343-1.523
			C225.229,274.908,225.283,271.571,225.103,272.586z M497.03,266.399H240.201v-56.51h241.55c8.425,0,15.279,6.854,15.279,15.279
			V266.399z"/>
	</g>
</g>
<g>
	<g>
		<path d="M263.984,215.828c-4.135,0-7.485,3.351-7.485,7.485v26.448c0,4.134,3.351,7.485,7.485,7.485
			c4.134,0,7.485-3.351,7.485-7.485v-26.448C271.47,219.18,268.119,215.828,263.984,215.828z"/>
	</g>
</g>
<g>
	<g>
		<path d="M322.37,215.828c-4.134,0-7.485,3.351-7.485,7.485v26.448c0,4.134,3.351,7.485,7.485,7.485
			c4.135,0,7.486-3.351,7.486-7.485v-26.448C329.856,219.18,326.505,215.828,322.37,215.828z"/>
	</g>
</g>
<g>
	<g>
		<path d="M380.756,215.828c-4.135,0-7.485,3.351-7.485,7.485v26.448c0,4.134,3.351,7.485,7.485,7.485
			c4.135,0,7.485-3.351,7.485-7.485v-26.448C388.242,219.18,384.891,215.828,380.756,215.828z"/>
	</g>
</g>
<g>
	<g>
		<path d="M439.142,215.828c-4.135,0-7.486,3.351-7.486,7.485v26.448c0,4.134,3.351,7.485,7.486,7.485
			c4.134,0,7.485-3.351,7.485-7.485v-26.448C446.628,219.18,443.277,215.828,439.142,215.828z"/>
	</g>
</g>
<g>
	<g>
		<path d="M207.18,9.731c-4.134,0-7.486,3.351-7.486,7.485v140.226c0.001,4.135,3.352,7.486,7.486,7.486
			c4.134,0,7.485-3.351,7.485-7.485V17.216C214.665,13.081,211.314,9.731,207.18,9.731z"/>
	</g>
</g>
<g>
	<g>
		<path d="M345.879,65.068c-2.924-2.923-7.663-2.923-10.587,0l-93.567,93.567c-2.924,2.923-2.924,7.663,0,10.586
			c1.461,1.462,3.377,2.193,5.293,2.193s3.831-0.731,5.293-2.193l93.568-93.567C348.802,72.732,348.802,67.992,345.879,65.068z"/>
	</g>
</g>
<g>
	<g>
		<path d="M170.221,158.637L76.653,65.07c-2.923-2.923-7.663-2.923-10.586,0c-2.924,2.923-2.924,7.663,0,10.586l93.568,93.567
			c1.462,1.462,3.377,2.193,5.293,2.193c1.916,0,3.831-0.731,5.293-2.193C173.144,166.299,173.144,161.56,170.221,158.637z"/>
	</g>
</g>
<g>
	<g>
		<path d="M166.176,310.313c-40.815,0-74.021,33.206-74.021,74.02c0,40.814,33.206,74.021,74.021,74.021s74.02-33.206,74.02-74.021
			S206.99,310.313,166.176,310.313z M166.176,443.383c-32.56,0-59.05-26.49-59.05-59.05s26.49-59.05,59.05-59.05
			s59.049,26.49,59.049,59.05C225.225,416.893,198.735,443.383,166.176,443.383z"/>
	</g>
</g>
<g>
</g>
<g>
</g>
<g>
</g>
<g>
</g>
<g>
</g>
<g>
</g>
<g>
</g>
<g>
</g>
<g>
</g>
<g>
</g>
<g>
</g>
<g>
</g>
<g>
</g>
<g>
</g>
<g>
</g>
</svg>
